<svg fill="none" height="512" viewBox="0 0 512 512" width="512" xmlns="http://www.w3.org/2000/svg" xmlns:xlink="http://www.w3.org/1999/xlink"><clipPath id="a"><path d="m0 0h512v512h-512z"/></clipPath><g clip-path="url(#a)"><path d="m400.184 183.418-5.64 19.371c-20.833 71.563-75.437 136.573-147.372 169.931l-41.44-12.829c-22.795-7.062-44.089-14.016-47.326-15.448-5.885-2.619-5.885-2.619-50.66-85.5-24.6293-45.58-44.8249-83.97-44.8739-85.304-.1374-3.443 16.4193-21.638 34.7218-38.155 40.0381-36.1442 85.3331-63.3332 135.1891-81.1551 29.239-10.4558 80.734-21.814 86.658-19.1166 1.854.8435 11.505 18.175 80.743 148.2057zm-249.075 41.732c0 27.684 10.997 54.236 30.574 73.812 19.576 19.576 46.127 30.574 73.812 30.574s54.236-10.998 73.812-30.574 30.574-46.128 30.574-73.812c0-27.685-10.998-54.236-30.574-73.813-19.576-19.576-46.127-30.574-73.812-30.574s-54.236 10.998-73.812 30.574c-19.577 19.577-30.574 46.128-30.574 73.813z" fill="#efeff9"/><path d="m80.1741 331.652c-5.4927-5.159-7.6506-8.857-36.8797-63.333-31.0338-57.85-31.0338-57.85-31.0338-66.403 0-13.751 3.5016-18.43 21.6374-28.944 13.7318-7.945 13.8593-8.053 27.4636-22.981 63.3234-69.4442 142.0844-111.4144 239.2664-127.5101 23.541-3.8939 23.541-3.8939 32.682-9.7692 17.724-11.37775 29.582-11.95645 41.411-2.0009 5.189 4.3549 121.948 219.4542 124.665 229.6542 3.953 14.85-2.275 25.365-21.47 36.233-13.006 7.356-13.006 7.356-29.936 25.502-39.979 42.843-105.499 88.364-138.289 96.063-4.727 1.109-11.897 2.021-15.938 2.021-6.719 0-11.153-1.197-52.22-14.114-173.1879-54.486-154.8657-48.307-161.3589-54.418zm320.0099-148.234c-69.238-130.0307-78.889-147.3622-80.743-148.2057-5.924-2.6974-57.419 8.6608-86.658 19.1166-49.856 17.8219-95.151 45.0109-135.1891 81.1551-18.3025 16.517-34.8592 34.712-34.7218 38.155.049 1.334 20.2445 39.724 44.8739 85.304 44.775 82.881 44.775 82.881 50.66 85.5 3.237 1.432 24.531 8.386 47.326 15.448l41.44 12.829 9.073 3.07c39.283 13.31 41.372 13.301 68.787-.284 38.978-19.333 78.654-48.63 108.442-80.106 9.22-9.749 14.967-16.605 15.379-18.371.559-2.422-2.844-9.259-48.669-93.611zm-342.7949 79.458c35.5164 66.099 30.3473 59.802 55.7319 67.972 9.533 3.07 17.773 5.581 18.312 5.581s.981-.225.981-.51c0-.275-18.577-35.144-82.5773-154.443l-9.8575 5.453c-18.9009 10.475-19.7444 6.797 17.4099 75.947zm281.1199-236.1186c-4.297 2.4815-4.297 2.4815 123.468 241.0126l9.073-4.816c4.992-2.648 10.063-5.875 11.27-7.17 6.375-6.807 10.004 1.118-55.526-121.114-41.382-77.1926-59.821-110.6884-61.93-112.4539-6.062-5.1004-11.221-4.2176-26.355 4.5413z" fill="#0f0f14" fill-opacity=".988235"/><path d="m165.066 225.182c.157-23.881 9.754-46.731 26.697-63.562 16.943-16.832 39.855-26.278 63.737-26.278s46.794 9.446 63.736 26.278c16.943 16.831 26.54 39.681 26.697 63.562-.157 23.881-9.754 46.731-26.697 63.562-16.942 16.832-39.854 26.278-63.736 26.278s-46.794-9.446-63.737-26.278c-16.943-16.831-26.54-39.681-26.697-63.562zm44.844 2.369c0 24.432 13.232 55.231 26.993 62.852 1.873 1.04 4.59 1.883 6.032 1.883 1.452 0 4.492-.902 6.758-2.001 2.972-1.432 7.288-5.757 15.419-15.448 6.219-7.395 14.212-16.007 17.763-19.146 24.864-21.922 26.149-53.005 2.933-70.738-4.169-3.188-4.169-3.188-1.295-5.709 3.462-3.04 3.855-7.601.912-10.544-3.207-3.207-7.062-2.501-12.29 2.236-4.639 4.198-4.639 4.198-10.043 1.472-25.993-13.114-53.182 15.075-53.182 55.143z" fill="#fcd86b"/><path d="m247.172 372.72c71.935-33.358 126.539-98.368 147.372-169.931l5.64-19.371c45.825 84.352 49.228 91.189 48.669 93.611-.412 1.766-6.159 8.622-15.379 18.371-29.788 31.476-69.464 60.773-108.442 80.106-27.415 13.585-29.504 13.594-68.787.284z" fill="#ddddea"/><path d="m338.509 26.7574c15.134-8.7589 20.293-9.6417 26.355-4.5413 2.109 1.7655 20.548 35.2613 61.93 112.4539 65.53 122.232 61.901 114.307 55.526 121.114-1.207 1.295-6.278 4.522-11.27 7.17l-9.073 4.816c-127.765-238.5311-127.765-238.5311-123.468-241.0126z" fill="#93dd68"/><path d="m151.109 225.152c0-27.684 10.997-54.235 30.574-73.812 19.576-19.576 46.127-30.574 73.812-30.574s54.236 10.998 73.812 30.574c19.576 19.577 30.574 46.128 30.574 73.812 0 27.685-10.998 54.236-30.574 73.813-19.576 19.576-46.127 30.574-73.812 30.574s-54.236-10.998-73.812-30.574c-19.577-19.577-30.574-46.128-30.574-73.813zm13.956.038c.157 23.881 9.754 46.731 26.697 63.562s39.855 26.278 63.737 26.278 46.794-9.447 63.736-26.278c16.943-16.831 26.54-39.681 26.697-63.562-.157-23.882-9.754-46.731-26.697-63.563-16.942-16.831-39.854-26.277-63.736-26.277s-46.794 9.446-63.737 26.277c-16.943 16.832-26.54 39.681-26.697 63.563z" fill="#0f0f14" fill-opacity=".988235"/><path d="m209.91 227.556c0-40.068 27.189-68.257 53.181-55.143 5.405 2.726 5.405 2.726 10.044-1.472 5.228-4.737 9.083-5.443 12.29-2.236 2.943 2.943 2.55 7.503-.912 10.544-2.874 2.521-2.874 2.521 1.295 5.709 23.216 17.733 21.931 48.816-2.933 70.738-3.551 3.139-11.544 11.75-17.763 19.146-8.131 9.691-12.447 14.016-15.419 15.448-2.266 1.099-5.306 2.001-6.758 2.001-1.442 0-4.159-.843-6.032-1.883-13.761-7.621-26.993-38.42-26.993-62.852zm40.656-44.138c-28.572 0-36.654 59.233-12.172 89.197 2.668 3.267 4.992 5.944 5.169 5.944.176 0 5.287-5.924 11.358-13.163 6.071-7.238 14.114-15.899 17.881-19.253 17.469-15.517 20.431-29.112 9.71-44.423-7.297-10.416-9.808-10.338-17.076.53-8.848 13.241-14.939 27.473-16.93 39.528-2.02 12.28-3.001 14.467-6.973 15.644-14.242 4.228-8.357-29.71 10.318-59.468 8.514-13.546 8.425-14.536-1.285-14.536z" fill="#0f0f14" fill-opacity=".988235"/><path d="m57.3891 262.876c-37.1543-69.15-36.3108-65.472-17.41-75.947l9.8575-5.453c64.0004 119.299 82.5774 154.168 82.5774 154.443 0 .285-.442.51-.981.51-.54 0-8.779-2.511-18.312-5.581-25.3846-8.17-20.2156-1.873-55.7319-67.972z" fill="#93dd68"/><path d="m250.566 183.418c9.71 0 9.799.99 1.285 14.536-18.675 29.758-24.56 63.696-10.318 59.468 3.972-1.177 4.953-3.364 6.973-15.644 1.991-12.055 8.082-26.287 16.93-39.528 7.268-10.868 9.779-10.946 17.076-.53 10.721 15.311 7.759 28.906-9.71 44.423-3.767 3.354-11.81 12.015-17.881 19.253-6.071 7.239-11.182 13.163-11.358 13.163-.177 0-2.501-2.677-5.169-5.944-24.482-29.964-16.4-89.197 12.172-89.197z" fill="#72d349"/><g fill="#0f0f14" fill-opacity=".988235"><path d="m131.521 467.754c12.428-27.15 39.195-35.104 50.916-15.124 9.269 15.801-1.54 42.892-20.873 52.288-3.354 1.629-7.758 3.227-9.779 3.551-2.02.324-5.286.088-7.258-.53-15.428-4.825-21.127-22.432-13.006-40.185zm32.241-10.681c-12.693 0-26.287 25.953-18.166 34.653.844.902 2.305 1.628 3.247 1.618.942-.009 3.482-.824 5.64-1.814 15.056-6.856 22.491-34.457 9.279-34.457z"/><path d="m131.6 372.299c37.664.215 28.454 45.609-10.947 53.966-3.511.735-7.16 1.353-8.101 1.363-.942.01-4.032-.667-6.866-1.501-36.0462-10.662-15.1444-54.054 25.914-53.828zm1.755 13.653c-17.243-2.913-39.7532 17.959-26.198 24.286 2.648 1.235 4.973 1.559 8.337 1.137 2.56-.314 7.2-1.697 10.299-3.07 14.536-6.444 19.244-20.372 7.562-22.353z"/><path d="m229.959 412.278c34.29 3.286 52.377 38.292 26.963 52.19-3.001 1.638-7.298 3.296-9.563 3.679-2.707.461-6.366.137-10.731-.942-42.196-10.426-48.081-58.9-6.669-54.927zm.412 14.104c-18.587-3.168-17.754 13.359 1.147 22.854 4.355 2.187 7.209 2.933 11.192 2.933 2.942 0 6.503-.53 7.915-1.168 10.083-4.59-4.129-21.872-20.254-24.619z"/></g><path d="m163.762 457.073c13.211 0 5.777 27.601-9.279 34.457-2.158.99-4.699 1.805-5.64 1.814-.942.01-2.403-.716-3.247-1.618-8.121-8.7 5.473-34.653 18.166-34.653z" fill="#fcd86b"/><path d="m230.371 426.382c16.125 2.747 30.337 20.029 20.254 24.619-1.412.638-4.973 1.168-7.915 1.168-3.983 0-6.837-.746-11.192-2.933-18.901-9.495-19.734-26.022-1.147-22.854z" fill="#fcd86b"/><path d="m133.355 385.952c11.682 1.981 6.974 15.909-7.562 22.353-3.099 1.373-7.739 2.756-10.299 3.07-3.364.422-5.689.098-8.337-1.137-13.5552-6.327 8.955-27.199 26.198-24.286z" fill="#fcd86b"/></g></svg>